<svg xmlns="http://www.w3.org/2000/svg" width="11" height="11" viewBox="0 0 11 11" fill="none">
  <path d="M1.16667 9.33333H1.99792L7.7 3.63125L6.86875 2.8L1.16667 8.50208V9.33333ZM0 10.5V8.02083L7.7 0.335417C7.81667 0.228472 7.94549 0.145833 8.08646 0.0875C8.22743 0.0291667 8.37569 0 8.53125 0C8.68681 0 8.8375 0.0291667 8.98333 0.0875C9.12917 0.145833 9.25556 0.233333 9.3625 0.35L10.1646 1.16667C10.2812 1.27361 10.3663 1.4 10.4198 1.54583C10.4733 1.69167 10.5 1.8375 10.5 1.98333C10.5 2.13889 10.4733 2.28715 10.4198 2.42812C10.3663 2.5691 10.2812 2.69792 10.1646 2.81458L2.47917 10.5H0ZM9.33333 1.98333L8.51667 1.16667L9.33333 1.98333ZM7.27708 3.22292L6.86875 2.8L7.7 3.63125L7.27708 3.22292Z" fill="#006D36"/>
</svg>
