<svg xmlns="http://www.w3.org/2000/svg" width="24" height="27" viewBox="0 0 24 27" fill="none">
  <path d="M0 16.5C0 13.875 0.625 11.5375 1.875 9.4875C3.125 7.4375 4.5 5.7125 6 4.3125C7.5 2.9125 8.875 1.84375 10.125 1.10625C11.375 0.36875 12 0 12 0V4.95C12 5.875 12.3125 6.60625 12.9375 7.14375C13.5625 7.68125 14.2625 7.95 15.0375 7.95C15.4625 7.95 15.8688 7.8625 16.2563 7.6875C16.6438 7.5125 17 7.225 17.325 6.825L18 6C19.8 7.05 21.25 8.50625 22.35 10.3687C23.45 12.2312 24 14.275 24 16.5C24 18.7 23.4625 20.7062 22.3875 22.5187C21.3125 24.3312 19.9 25.7625 18.15 26.8125C18.575 26.2125 18.9062 25.5562 19.1437 24.8438C19.3812 24.1313 19.5 23.375 19.5 22.575C19.5 21.575 19.3125 20.6313 18.9375 19.7437C18.5625 18.8562 18.025 18.0625 17.325 17.3625L12 12.15L6.7125 17.3625C5.9875 18.0875 5.4375 18.8875 5.0625 19.7625C4.6875 20.6375 4.5 21.575 4.5 22.575C4.5 23.375 4.61875 24.1313 4.85625 24.8438C5.09375 25.5562 5.425 26.2125 5.85 26.8125C4.1 25.7625 2.6875 24.3312 1.6125 22.5187C0.5375 20.7062 0 18.7 0 16.5ZM12 16.35L15.1875 19.4625C15.6125 19.8875 15.9375 20.3625 16.1625 20.8875C16.3875 21.4125 16.5 21.975 16.5 22.575C16.5 23.8 16.0625 24.8438 15.1875 25.7062C14.3125 26.5687 13.25 27 12 27C10.75 27 9.6875 26.5687 8.8125 25.7062C7.9375 24.8438 7.5 23.8 7.5 22.575C7.5 22 7.6125 21.4438 7.8375 20.9062C8.0625 20.3687 8.3875 19.8875 8.8125 19.4625L12 16.35Z" fill="#EBBF00"/>
</svg>
